<?xml version="1.0" standalone="no"?>
<!DOCTYPE svg PUBLIC "-//W3C//DTD SVG 20010904//EN"
 "http://www.w3.org/TR/2001/REC-SVG-20010904/DTD/svg10.dtd">
<svg version="1.0" xmlns="http://www.w3.org/2000/svg"
 width="100.000000pt" height="100.000000pt" viewBox="0 0 100.000000 100.000000"
 preserveAspectRatio="xMidYMid meet">
<metadata>
Created by potrace 1.11, written by Peter Selinger 2001-2013
</metadata>
<g transform="translate(0.000000,100.000000) scale(0.100000,-0.100000)"
fill="#000000" stroke="none">
<path d="M469 990 c-64 -18 -109 -74 -109 -138 0 -62 0 -62 145 -62 145 0 145
0 145 62 0 89 -95 161 -181 138z"/>
<path d="M443 773 c37 -2 96 -2 130 0 34 2 4 3 -68 3 -72 0 -99 -1 -62 -3z"/>
<path d="M422 755 c2 -2 23 -5 47 -8 24 -2 47 -10 52 -18 9 -16 1 -28 -9 -13
-4 6 -16 10 -27 11 -11 0 -29 3 -40 7 -11 4 -3 -2 18 -14 44 -24 73 -23 69 4
-2 13 0 16 10 10 19 -12 39 -14 32 -3 -3 5 -9 7 -14 4 -5 -3 -12 0 -16 6 -5 8
3 10 25 7 17 -2 31 -1 31 3 0 4 -41 7 -91 7 -50 1 -89 -1 -87 -3z"/>
<path d="M207 661 c-9 -16 -17 -31 -17 -34 0 -2 44 -4 98 -3 95 2 152 -11 152
-34 0 -6 26 -10 57 -10 45 0 62 5 80 22 20 19 36 22 126 24 56 1 106 3 110 3
5 1 -1 15 -13 31 l-21 30 -117 0 c-90 0 -123 -4 -140 -16 -20 -14 -24 -14 -38
0 -12 13 -40 16 -138 16 l-122 0 -17 -29z"/>
<path d="M207 593 c-2 -5 -3 -87 -2 -183 2 -199 8 -221 76 -295 43 -47 43 -47
60 -26 17 21 16 23 -17 55 -57 56 -64 84 -64 281 l0 175 -24 0 c-14 0 -27 -3
-29 -7z"/>
<path d="M290 423 c0 -171 1 -178 25 -219 33 -56 57 -70 74 -42 11 17 10 23
-7 42 -37 40 -41 61 -41 207 0 79 0 154 0 167 -1 17 -7 22 -26 22 l-25 0 0
-177z"/>
<path d="M669 593 c-1 -5 -1 -77 -1 -162 0 -160 -5 -191 -40 -228 -18 -19 -19
-24 -6 -42 14 -20 15 -20 46 12 46 48 52 74 53 230 1 211 3 197 -26 197 -14 0
-25 -3 -26 -7z"/>
<path d="M749 473 c-1 -70 -1 -148 0 -172 1 -52 -25 -115 -66 -157 -23 -23
-28 -35 -21 -48 13 -23 25 -20 63 17 65 63 76 104 77 304 l2 178 -27 3 -27 3
-1 -128z"/>
<path d="M454 558 c-4 -6 -7 -88 -8 -182 l-1 -171 -34 -55 c-67 -108 -81 -138
-68 -142 10 -3 327 -3 334 1 5 2 -44 87 -89 156 -24 38 -26 50 -27 143 -1 272
1 252 -21 252 -11 0 -20 -6 -21 -12 0 -7 -1 -88 -1 -180 l-1 -167 37 -61 c20
-34 36 -63 36 -66 0 -2 -38 -4 -85 -4 -47 0 -85 4 -85 8 0 4 16 32 35 62 l34
55 1 181 c0 151 -3 183 -15 187 -8 4 -17 1 -21 -5z"/>
</g>
</svg>
